<svg width="346" height="237" viewBox="0 0 346 237" fill="none" xmlns="http://www.w3.org/2000/svg">
<path d="M345 49.4467L259.456 104.423L287.971 163.961L345 136.815M1.22815 119.022L33.6207 136.815L58.7136 79.1019L1.22815 44.6562" stroke="#FFFCF9" stroke-width="2"/>
<path d="M56.6605 85.0343L71.0319 90.5091C77.7993 86.555 93.3417 79.4226 101.371 82.525M38.8674 127.92L63.2759 140.923L47.764 162.594L144.485 234.679L187.828 173.544M64.6446 124.499C76.5067 124.499 101.052 124.225 104.337 123.13C108.443 121.761 122.586 114.005 122.358 108.987C122.13 103.968 120.305 101.003 116.427 101.459C112.549 101.915 91.3343 107.846 91.1062 106.934L153.382 2L261.966 64.2759L227.064 119.48M265.844 119.48L251.016 128.833C244.781 125.183 231.261 118.203 227.064 119.48M227.064 119.48C221.817 121.077 219.5 124.935 219.5 128.833C219.5 130 219.375 130.36 220.448 132.255M283.865 158.26C280.063 159.781 272.368 163.187 272.003 164.647C271.638 166.107 252.233 193.086 242.576 206.393C238.698 208.065 230.896 209.951 230.714 204.111C230.485 196.812 234.363 187.003 236.188 185.406C238.013 183.809 214.517 200.005 209.042 200.462C203.568 200.918 201.515 198.865 201.971 196.812C202.427 194.759 222.958 174 225.011 173.544C227.064 173.088 195.355 189.512 191.477 188.828C187.6 188.143 184.178 185.634 187.828 180.615C190.748 176.601 207.902 164.951 216.114 159.629L187.828 173.544M187.828 173.544L210.411 144.959M220.448 132.255C222.456 135.798 227.471 141.082 228.661 141.379L210.411 144.959M220.448 132.255L210.411 144.959" stroke="#FFFCF9" stroke-width="2"/>
<path d="M1 44.4287L59.1698 78.8743L34.9894 135.675L1 120.163" stroke="#FFFCF9" stroke-width="2"/>
<path d="M180.617 55.4078L174.515 51.9151L172.666 55.1454L179.621 59.1259L178.328 61.3845L168.808 55.9357L175.998 43.3727L185.212 48.6459L183.938 50.8704L177.29 47.0655L175.764 49.7332L181.866 53.2259L180.617 55.4078ZM185.973 63.3496C186.592 63.7041 187.134 63.9237 187.598 64.0084C188.481 64.1666 189.125 63.8905 189.532 63.1803C189.769 62.7655 189.771 62.3404 189.538 61.905C189.301 61.4752 188.842 60.9524 188.161 60.3364L187.002 59.2771C185.864 58.2337 185.145 57.3955 184.843 56.7628C184.328 55.6986 184.424 54.5501 185.129 53.3171C185.773 52.192 186.717 51.4915 187.961 51.2154C189.206 50.9393 190.62 51.255 192.206 52.1623C193.53 52.92 194.456 53.9178 194.985 55.1557C195.522 56.3912 195.431 57.6896 194.713 59.0509L192.19 57.607C192.577 56.8253 192.555 56.0997 192.123 55.4303C191.834 54.9859 191.386 54.5897 190.778 54.2418C190.102 53.8548 189.484 53.6822 188.924 53.724C188.365 53.7659 187.945 54.0311 187.666 54.5198C187.409 54.9687 187.416 55.4177 187.687 55.867C187.858 56.1611 188.304 56.6466 189.026 57.3235L190.893 59.0824C191.712 59.8528 192.254 60.5665 192.519 61.2237C192.931 62.2439 192.816 63.3137 192.175 64.433C191.519 65.5808 190.532 66.2834 189.215 66.5407C187.908 66.7956 186.453 66.4645 184.85 65.5474C183.214 64.6108 182.14 63.5021 181.629 62.2211C181.12 60.9345 181.24 59.6378 181.988 58.3309L184.494 59.765C184.245 60.3845 184.156 60.9029 184.226 61.3203C184.356 62.0813 184.938 62.7577 185.973 63.3496ZM199.897 73.3216C198.96 73.351 197.985 73.0763 196.974 72.4974C195.309 71.5446 194.276 70.1874 193.873 68.4258C193.429 66.6325 193.782 64.7301 194.933 62.7187C196.097 60.6845 197.59 59.374 199.412 58.7874C201.234 58.2007 203.065 58.4342 204.906 59.4878C206.503 60.4017 207.552 61.5413 208.053 62.9067C208.563 64.2696 208.542 65.5969 207.992 66.8885L205.409 65.4104C205.701 64.4386 205.558 63.5611 204.981 62.7779C204.656 62.3432 204.23 61.9747 203.701 61.6722C202.69 61.0934 201.638 61.0005 200.546 61.3936C199.462 61.7842 198.481 62.7466 197.603 64.2808C196.719 65.8263 196.445 67.1218 196.782 68.1671C197.119 69.2124 197.737 69.992 198.634 70.5058C199.515 71.0099 200.381 71.17 201.233 70.9863C202.089 70.7968 202.817 70.3276 203.42 69.5785L200.513 67.915L201.713 65.8184L206.946 68.8135L203.088 75.5553L201.349 74.5601L201.982 72.8407C201.135 73.1479 200.44 73.3082 199.897 73.3216ZM137.727 66.1733L135.017 64.6221L132.198 69.5485L129.632 68.0802L136.822 55.5171L142.985 59.0439C143.856 59.5651 144.47 60.06 144.828 60.5288C145.191 61.0008 145.427 61.5244 145.536 62.0994C145.626 62.5737 145.641 63.0495 145.578 63.527C145.516 64.0044 145.344 64.4903 145.061 64.9846C144.72 65.5812 144.232 66.0832 143.6 66.4904C142.97 66.8919 142.24 67.0136 141.41 66.8555C141.857 67.4202 142.076 67.9867 142.067 68.5552C142.067 69.1212 141.816 69.8445 141.312 70.7252L140.829 71.569C140.5 72.1429 140.3 72.5451 140.229 72.7757C140.111 73.1386 140.134 73.4683 140.296 73.7648L140.116 74.0802L137.226 72.4265C137.306 72.1026 137.378 71.8456 137.441 71.6556C137.575 71.2643 137.744 70.8824 137.95 70.5098L138.601 69.3324C139.048 68.5247 139.206 67.906 139.075 67.4764C138.949 67.0499 138.5 66.6156 137.727 66.1733ZM140.629 64.8013C141.288 64.8619 141.819 64.5399 142.222 63.8353C142.658 63.0739 142.698 62.4178 142.342 61.867C142.142 61.5566 141.759 61.2389 141.19 60.9137L138.139 59.1673L136.207 62.5425L139.182 64.2449C139.773 64.5831 140.255 64.7686 140.629 64.8013ZM151.02 76.8928L146.392 74.244L144.045 76.329L141.3 74.7582L152.974 64.761L155.94 66.4586L153.199 81.568L150.352 79.9387L151.02 76.8928ZM151.526 74.3084L152.787 68.4675L148.339 72.484L151.526 74.3084ZM162.722 81.0215L160.054 79.4946L157.469 84.0119L154.861 82.5192L162.051 69.9562L167.523 73.0879C168.784 73.8098 169.604 74.7093 169.984 75.7863C170.363 76.8634 170.164 78.0809 169.387 79.4389C168.538 80.9219 167.563 81.7556 166.462 81.94C165.36 82.1244 164.114 81.8182 162.722 81.0215ZM165.447 79.1073C165.96 79.0013 166.404 78.6216 166.777 77.9681C167.151 77.3147 167.245 76.7496 167.058 76.2728C166.876 75.7992 166.476 75.3852 165.856 75.0308L163.41 73.6308L161.293 77.3298L163.739 78.7298C164.358 79.0843 164.928 79.2101 165.447 79.1073ZM174.364 87.6849L171.697 86.1581L169.111 90.6753L166.503 89.1826L173.693 76.6196L179.165 79.7513C180.427 80.4732 181.247 81.3727 181.626 82.4498C182.006 83.5268 181.807 84.7443 181.029 86.1023C180.181 87.5853 179.206 88.419 178.104 88.6034C177.003 88.7878 175.756 88.4817 174.364 87.6849ZM177.089 85.7708C177.602 85.6647 178.046 85.285 178.42 84.6316C178.794 83.9781 178.887 83.413 178.7 82.9362C178.519 82.4627 178.118 82.0487 177.499 81.6942L175.053 80.2942L172.936 83.9932L175.382 85.3932C176.001 85.7477 176.57 85.8735 177.089 85.7708ZM183.443 99.3418C181.648 98.3142 180.555 97.0402 180.165 95.5198C179.579 93.5924 179.931 91.5008 181.222 89.245C182.539 86.9438 184.164 85.5807 186.097 85.1557C187.605 84.7215 189.257 85.0182 191.053 86.0458C192.848 87.0735 193.941 88.3475 194.33 89.8679C194.937 91.7465 194.582 93.8365 193.265 96.1377C191.974 98.3935 190.352 99.7583 188.399 100.232C186.89 100.666 185.239 100.369 183.443 99.3418ZM187.855 97.3862C188.902 96.9671 189.83 96.0501 190.64 94.6353C191.447 93.2261 191.763 91.9624 191.588 90.8441C191.422 89.7234 190.819 88.8655 189.78 88.2703C188.74 87.6752 187.691 87.584 186.632 87.9966C185.574 88.4092 184.64 89.3229 183.83 90.7377C183.02 92.1526 182.706 93.4208 182.886 94.5423C183.066 95.6639 183.676 96.5222 184.716 97.1173C185.756 97.7124 186.802 97.8021 187.855 97.3862ZM199.827 101.715L197.116 100.164L194.297 105.09L191.731 103.622L198.922 91.0586L205.084 94.5855C205.955 95.1066 206.569 95.6015 206.927 96.0703C207.291 96.5424 207.526 97.0659 207.635 97.6409C207.726 98.1152 207.74 98.591 207.678 99.0685C207.616 99.5459 207.443 100.032 207.16 100.526C206.819 101.123 206.332 101.625 205.699 102.032C205.069 102.433 204.34 102.555 203.51 102.397C203.956 102.962 204.175 103.528 204.166 104.097C204.167 104.663 203.915 105.386 203.411 106.267L202.928 107.111C202.599 107.684 202.399 108.087 202.328 108.317C202.211 108.68 202.233 109.01 202.395 109.306L202.215 109.622L199.326 107.968C199.405 107.644 199.477 107.387 199.54 107.197C199.674 106.806 199.843 106.424 200.049 106.051L200.7 104.874C201.148 104.066 201.306 103.448 201.174 103.018C201.049 102.591 200.6 102.157 199.827 101.715ZM202.728 100.343C203.387 100.403 203.919 100.081 204.322 99.3768C204.758 98.6154 204.797 97.9593 204.441 97.4085C204.242 97.0982 203.858 96.7804 203.29 96.4552L200.238 94.7088L198.307 98.084L201.281 99.7864C201.872 100.125 202.354 100.31 202.728 100.343ZM220.604 103.468L219.331 105.693L215.573 103.542L209.656 113.88L207.013 112.368L212.93 102.03L209.155 99.8685L210.428 97.644L220.604 103.468Z" fill="#44C967"/>
<line x1="125.906" y1="89.1479" x2="195.346" y2="131.8" stroke="white" stroke-width="2"/>
<line x1="118.534" y1="98.8764" x2="187.973" y2="141.528" stroke="white" stroke-width="2"/>
<line x1="120.924" y1="114.976" x2="180.597" y2="151.254" stroke="white" stroke-width="2"/>
<line x1="109.639" y1="122.56" x2="171.235" y2="160.913" stroke="white" stroke-width="2"/>
<line x1="94.3802" y1="128.986" x2="163.82" y2="171.637" stroke="white" stroke-width="2"/>
<line x1="85.9706" y1="139.676" x2="155.41" y2="182.328" stroke="white" stroke-width="2"/>
<line x1="77.5234" y1="151.366" x2="146.963" y2="194.017" stroke="white" stroke-width="2"/>
</svg>
