<svg width="365" height="134" viewBox="0 0 365 134" fill="none" xmlns="http://www.w3.org/2000/svg">
<path d="M48.5 26.5338L47.5 17.0337L2 21.0337L3 36M48.5 26.5338L98 5.53377C106.833 2.8671 128.1 -0.866229 142.5 5.53377C160.5 13.5338 201 36.5337 223.5 41.0337C241.5 44.6337 257 53.5337 262.5 57.5337C264.667 60.367 267.7 66.6337 262.5 69.0337C256 72.0337 209 88.5336 142.5 57.5337M48.5 26.5338L57.575 109.034M57.575 109.034L59.5 126.534L17 132L15 119.5M57.575 109.034C65.3833 109.034 81.5 109.034 83.5 109.034C86 109.034 107 110.034 117.5 114.034C128 118.034 151.5 128.034 158 129.034C169.667 131.534 198.7 135.034 221.5 129.034C244.3 123.034 306.667 78.867 335 57.5337C343.5 50.8671 360.8 35.3338 362 26.5338C363.5 15.5337 363 9.03369 349 9.03369C337.8 9.03369 297.333 34.7004 278.5 47.5337" stroke="white" stroke-width="3" stroke-linecap="round"/>
</svg>
