<svg width="317" height="272" viewBox="0 0 317 272" fill="none" xmlns="http://www.w3.org/2000/svg">
<path d="M37.5249 89.0202V65.8037L50.4065 89.0202L62.168 65.8037V89.0202M100.253 65.8037H110.614M120.975 65.8037H110.614M110.894 89.0202L110.614 65.8037" stroke="#FFFCF9" stroke-width="2"/>
<path d="M211.146 65.8037H221.508M231.869 65.8037H221.508M221.788 90.1L221.508 65.8037" stroke="#FFFCF9" stroke-width="2"/>
<path d="M280.035 66.3438H266.034V78.2219M266.034 90.1001V78.2219M266.034 78.2219H280.035M0 110.617H33.0442M315.88 110.617H244.191M33.0442 270.433V217.251M33.0442 110.617H84.0106M33.0442 110.617V164.069M84.0106 110.617V270.433M84.0106 110.617H137.217M137.217 110.617V270.433M137.217 110.617H190.984M190.984 110.617V270.433M190.984 110.617H244.191M244.191 110.617V270.433M33.0442 164.069H315.88M33.0442 164.069V217.251M315.88 215.901L33.0442 217.251" stroke="#FFFCF9" stroke-width="2"/>
<path d="M142.5 138.5L156.5 158.5L188.5 102.5" stroke="#44C967" stroke-width="2"/>
<path d="M49.2863 43.1276C46.8594 43.6676 41.6694 43.2356 40.3252 37.1885C38.981 31.1415 39.7651 16.3117 40.3252 9.65273C44.2457 -0.606046 64.9683 -5.46557 69.4489 16.6717" stroke="#FFFCF9" stroke-width="2"/>
<path d="M49.2863 43.1276C46.8594 43.6676 41.6694 43.2356 40.3252 37.1885C38.981 31.1415 39.7651 16.3117 40.3252 9.65273C44.2457 -0.606046 64.9683 -5.46557 69.4489 16.6717" stroke="#FFFCF9" stroke-width="2"/>
<path d="M108.276 43.6814C105.849 44.2213 100.659 43.7893 99.3145 37.7423C97.9703 31.6952 98.7544 16.8654 99.3145 10.2064C103.235 -0.0523346 123.958 -4.91185 128.438 17.2254" stroke="#FFFCF9" stroke-width="2"/>
<path d="M167.643 43.6814C165.216 44.2213 160.026 43.7893 158.682 37.7423C157.338 31.6952 158.122 16.8654 158.682 10.2064C162.603 -0.0523346 183.325 -4.91185 187.806 17.2254" stroke="#FFFCF9" stroke-width="2"/>
<path d="M223.65 43.6814C221.223 44.2213 216.033 43.7893 214.689 37.7423C213.345 31.6952 214.129 16.8654 214.689 10.2064C218.61 -0.0523346 239.332 -4.91185 243.813 17.2254" stroke="#FFFCF9" stroke-width="2"/>
<rect x="1" y="26.3101" width="315" height="244.203" stroke="#FFFCF9" stroke-width="2"/>
<path d="M177.103 77.1421C177.103 83.7944 171.987 89.1002 165.781 89.1002C159.575 89.1002 154.459 83.7944 154.459 77.1421C154.459 70.4898 159.575 65.1841 165.781 65.1841C171.987 65.1841 177.103 70.4898 177.103 77.1421Z" stroke="#FFFCF9" stroke-width="2"/>
<line x1="38.7241" y1="116.31" x2="78.7241" y2="158.31" stroke="white" stroke-width="2"/>
<line x1="37.2929" y1="158.305" x2="78.3051" y2="117.293" stroke="white" stroke-width="2"/>
<line x1="91.7241" y1="116.31" x2="131.724" y2="158.31" stroke="white" stroke-width="2"/>
<line x1="90.2929" y1="158.305" x2="131.305" y2="117.293" stroke="white" stroke-width="2"/>
</svg>
