<svg width="318" height="392" viewBox="0 0 318 392" fill="none" xmlns="http://www.w3.org/2000/svg">
<path d="M64.785 110.402C79.3825 95.4441 103.082 85.7772 113.107 82.8134C151.452 72.3206 181.897 87.4474 192.327 96.3224C264.146 153.226 217.616 219.025 206.79 233.795C195.708 248.913 173.128 278.942 164.32 294.056C159.333 302.613 153.402 325.6 151.8 333.981L125.814 329.55M99.8277 325.119L72.5802 320.472C74.6477 300.228 79.0794 265.916 61.9435 239.731M99.8277 325.119L120.564 203.514M99.8277 325.119L125.814 329.55M120.564 203.514L122.371 192.918C124.092 182.826 120.005 173.302 109.913 171.581C104.67 170.86 93.7717 171.84 92.1197 181.528C90.0546 193.638 97.1071 197.956 100.049 198.977C102.402 199.794 114.706 202.342 120.564 203.514ZM120.564 203.514L146.298 207.902M146.298 207.902L166.986 211.43C170.744 211.725 178.623 209.572 180.078 198.604C181.896 184.894 171.977 182.164 169.454 181.734C166.931 181.304 161.38 180.357 157.837 182.868C154.293 185.38 149.063 188.642 146.298 207.902ZM146.298 207.902L125.814 329.55M40.1072 93.7315L1.59417 63.7976M93.5218 54.5492L76.69 10.1385M160.529 48.321L168.446 1.89937M221.686 76.4045L252.79 40.168M259.601 131.161L306.867 115.854M266.334 198.254L315.783 206.687M238.004 257.811L276.838 291.954M69.1384 340.655L148.358 354.164M72.5144 360.444L137.101 371.457M122.558 389.748L83.7055 383.122" stroke="white" stroke-width="3" stroke-linecap="round" stroke-linejoin="round"/>
</svg>
