<svg width="385" height="242" viewBox="0 0 385 242" fill="none" xmlns="http://www.w3.org/2000/svg">
<path d="M192.499 120.142C220.024 120.142 249.721 101.309 249.721 65.8164C249.721 33.9456 227.267 2.79935 192.499 2.79932" stroke="white" stroke-width="3" stroke-linecap="round"/>
<path d="M191.775 240.381H290.284V180.261C290.284 157.083 282.172 134.628 258.414 117.244M312.014 240.381H382.999V180.261C382.999 157.083 370.541 129.413 349.68 117.244M290.284 117.244C315.636 117.244 345.044 100.005 343.885 62.9191C342.726 25.8332 313.463 8.35255 298.976 4.24798C283.041 -0.267059 269.134 2.07499 254.068 10.767" stroke="white" stroke-width="3" stroke-linecap="round"/>
<path d="M192.5 120.217C164.975 120.217 135.278 101.384 135.278 65.8916C135.278 34.0208 157.732 2.87455 192.5 2.87451" stroke="white" stroke-width="3" stroke-linecap="round"/>
<path d="M193.224 240.456H94.7146V180.337C94.7146 157.158 102.827 134.703 126.585 117.319M1.99979 180.337C1.99979 157.158 14.4583 129.488 35.3192 117.319M94.7146 117.319C69.3629 117.319 39.9549 100.08 41.1139 62.9943C42.2728 25.9084 71.5359 8.42774 86.0226 4.32318C101.958 -0.191864 115.865 2.15018 130.931 10.8422" stroke="white" stroke-width="3" stroke-linecap="round"/>
</svg>
