<svg width="249" height="326" viewBox="0 0 249 326" fill="none" xmlns="http://www.w3.org/2000/svg">
<path d="M234.264 291.207H147.253L178.83 265.244L192.162 275.566M200.582 282.085L192.162 275.566M192.162 275.566L211.108 257.525L234.264 279.98" stroke="#FFFCF9" stroke-width="2"/>
<rect x="129.307" y="212.915" width="118.693" height="89.2216" stroke="#FFFCF9" stroke-width="2"/>
<line x1="128.307" y1="233.369" x2="247.597" y2="233.369" stroke="#FFFCF9" stroke-width="2"/>
<circle cx="152.867" cy="223.844" r="2.10511" fill="#FFFCF9"/>
<circle cx="141.639" cy="223.844" r="2.10511" fill="#FFFCF9"/>
<circle cx="164.094" cy="223.844" r="2.10511" fill="#FFFCF9"/>
<circle cx="154.27" cy="254.719" r="7.71875" fill="#FFFCF9"/>
<path d="M107.957 79.2927H20.946L52.5227 53.3296L65.8551 63.6514M74.2756 70.1705L65.8551 63.6514M65.8551 63.6514L84.8012 45.6108L107.957 68.0654" stroke="#FFFCF9" stroke-width="2"/>
<rect x="3" y="1" width="118.693" height="89.2216" stroke="#FFFCF9" stroke-width="2"/>
<line x1="2" y1="21.4546" x2="121.29" y2="21.4546" stroke="#FFFCF9" stroke-width="2"/>
<circle cx="26.5597" cy="11.9288" r="2.10511" fill="#FFFCF9"/>
<circle cx="15.3324" cy="11.9288" r="2.10511" fill="#FFFCF9"/>
<circle cx="37.787" cy="11.9288" r="2.10511" fill="#FFFCF9"/>
<circle cx="27.9631" cy="42.8037" r="7.71875" fill="#FFFCF9"/>
<path d="M187.24 53.5311C188.568 53.5311 184.575 53.6151 183.268 53.8504C182.195 54.0436 181.171 54.07 180.054 54.07C177.801 54.07 175.743 52.3529 175.743 50.0282C175.743 46.8512 175.405 43.5358 177.859 41.1761C178.703 40.3642 179.419 40.1208 180.374 39.5194C181.437 38.8501 182.455 38.262 183.737 38.262C184.815 38.262 185.892 38.262 186.97 38.262C188.159 38.262 189.089 38.4268 190.214 38.6312C192.565 39.0588 195.146 41.5612 195.862 43.7509C196.479 45.636 195.97 47.7647 196.541 49.619C196.934 50.898 196.533 52.7761 196.391 54.05C196.031 57.2944 193.906 61.0204 191.232 62.8722C188.015 65.099 183.623 67.1834 179.615 67.1834C178.364 67.1834 176.991 67.2345 175.853 66.6445C174.87 66.1348 174.154 65.472 173.268 64.8482C171.876 63.8689 170.653 62.433 169.456 61.2355C165.875 57.6549 164.067 52.4216 164.067 47.4234C164.067 45.3476 164.058 43.056 164.965 41.1362C165.533 39.932 166.074 38.739 166.671 37.5434C167.406 36.0751 168.491 34.8665 169.366 33.4917C170.213 32.161 171.217 31.0954 172.33 29.9987C173.526 28.8201 174.688 27.3598 176.352 26.8651C180.567 25.6118 184.735 25.5078 189.096 25.5078C193.02 25.5078 196.035 27.6815 199.255 29.5397C201.863 31.0441 204.337 33.3757 205.343 36.2461C206.042 38.2382 207.163 40.037 207.579 42.1142C207.735 42.8961 207.837 43.9224 208.167 44.6491C208.528 45.4421 208.323 46.2598 208.527 47.0742C209.239 49.9246 209.155 58.8046 209.155 55.8664" stroke="#FFFCF9" stroke-width="2" stroke-linecap="round"/>
<path d="M196.662 56.8675C200.867 56.8675 205.037 56.126 209.227 56.126C210.718 56.126 211.86 54.8227 212.965 53.9942C213.222 53.8018 213.17 53.4929 213.284 53.2115C213.633 52.3554 214.053 51.4789 214.458 50.6471C214.853 49.8362 214.995 48.9825 215.344 48.1549C215.776 47.1296 215.689 45.681 216.034 44.571C216.349 43.5568 216.648 42.5747 217.342 41.7492C218.754 40.0679 220.99 38.3736 223.253 38.3301C225.095 38.2947 226.841 38.239 228.001 39.8337C229.111 41.3606 229.857 43.7803 230.019 45.6523C230.373 49.7244 228.779 54.1726 227.136 57.8252C225.651 61.1255 223.894 64.3013 221.317 66.8777C217.364 70.8304 211.205 72.4936 206.075 74.3338C204.069 75.0533 202.086 75.3591 199.958 75.5799C196.349 75.9545 192.948 75.694 189.371 75.6314C182.438 75.5102 175.35 76.4829 168.527 74.6634C167.614 74.4201 166.667 74.2404 165.808 73.8395C164.858 73.3961 163.952 72.8917 162.996 72.4286C162.233 72.0585 161.279 71.455 160.885 70.6675C160.058 69.0125 161.128 66.0529 161.853 64.509C163.239 61.5584 164.578 59.2773 167.929 59.2773" stroke="#FFFCF9" stroke-width="2" stroke-linecap="round"/>
<path d="M219.834 37.9587C219.834 37.4921 219.53 37.1278 219.36 36.7023C218.928 35.6224 218.484 34.5269 218.104 33.4274C217.704 32.2715 216.976 31.3554 216.312 30.3584" stroke="#FFFCF9" stroke-width="2" stroke-linecap="round"/>
<path d="M226.693 37.0325C226.693 34.5148 226.84 31.8799 228.732 29.9883" stroke="#FFFCF9" stroke-width="2" stroke-linecap="round"/>
<circle cx="214.595" cy="27.3664" r="2.50852" fill="#FFFCF9" stroke="#FFFCF9" stroke-width="2"/>
<circle cx="230.033" cy="27.3664" r="2.50852" fill="#FFFCF9" stroke="#FFFCF9" stroke-width="2"/>
<path d="M35.6818 200.688H13.929L2 228.054H16.7358L11.1222 251.21L44.1023 218.932H27.9631L35.6818 200.688Z" stroke="#FFFCF9" stroke-width="2"/>
<mask id="path-22-outside-1_378_759" maskUnits="userSpaceOnUse" x="63.75" y="202.847" width="40" height="46" fill="black">
<rect fill="white" x="63.75" y="202.847" width="40" height="46"/>
<path d="M77.495 224.146C76.391 224.662 75.3606 225.287 74.4037 226.023C73.4837 226.722 72.6741 227.514 71.9749 228.397C71.3125 229.28 70.7789 230.237 70.3741 231.267C69.9693 232.261 69.7669 233.291 69.7669 234.359C69.7669 235.683 69.9877 236.879 70.4293 237.947C70.9077 238.977 71.5333 239.86 72.3061 240.596C73.1157 241.332 74.0541 241.903 75.1214 242.307C76.2254 242.712 77.4214 242.915 78.7094 242.915C80.8438 242.915 82.7207 242.436 84.3399 241.479C85.9959 240.486 87.4863 239.198 88.8111 237.615L77.495 224.146ZM84.6159 215.038C84.9471 214.302 85.0759 213.529 85.0023 212.72C84.9655 211.873 84.7263 211.119 84.2847 210.457C83.8799 209.757 83.3095 209.187 82.5735 208.745C81.8374 208.304 80.9542 208.083 79.9238 208.083C79.2246 208.083 78.5622 208.193 77.9366 208.414C77.311 208.635 76.7406 208.948 76.2254 209.353C75.747 209.757 75.3606 210.254 75.0662 210.843C74.7718 211.432 74.6245 212.094 74.6245 212.83C74.6245 213.419 74.7718 214.063 75.0662 214.762C75.3606 215.461 75.7102 216.142 76.115 216.805C76.5566 217.467 77.0166 218.111 77.495 218.737C77.9734 219.326 78.3966 219.841 78.7646 220.282C79.8686 219.62 80.9726 218.902 82.0767 218.13C83.2175 217.32 84.0639 216.289 84.6159 215.038ZM90.688 234.579C91.3872 233.402 91.8288 232.169 92.0128 230.881C92.2336 229.556 92.344 228.213 92.344 226.851H95.6008C95.5272 228.654 95.288 230.458 94.8832 232.261C94.5152 234.027 93.8344 235.683 92.8408 237.229L99.2993 244.847H94.828L90.964 240.155C89.2343 242.215 87.3759 243.687 85.3887 244.571C83.4015 245.454 81.083 245.895 78.4334 245.895C76.7038 245.895 75.0846 245.601 73.5757 245.012C72.0669 244.46 70.7421 243.669 69.6013 242.639C68.4973 241.608 67.6141 240.375 66.9516 238.94C66.326 237.468 66.0132 235.849 66.0132 234.083C66.0132 232.611 66.2708 231.249 66.786 229.998C67.3012 228.746 67.9821 227.606 68.8285 226.575C69.7117 225.545 70.7237 224.643 71.8645 223.87C73.0053 223.061 74.2197 222.362 75.5078 221.773C74.4405 220.522 73.4653 219.178 72.5821 217.743C71.6989 216.271 71.2573 214.652 71.2573 212.885C71.2573 211.634 71.4965 210.53 71.9749 209.573C72.4533 208.58 73.0973 207.752 73.9069 207.089C74.7166 206.427 75.655 205.93 76.7222 205.599C77.8262 205.268 78.9854 205.102 80.1998 205.102C81.4142 205.102 82.5367 205.305 83.5671 205.709C84.5975 206.114 85.4807 206.666 86.2167 207.365C86.9527 208.065 87.5231 208.893 87.9279 209.849C88.3327 210.769 88.5351 211.745 88.5351 212.775C88.5351 214.1 88.3143 215.259 87.8727 216.253C87.4679 217.21 86.8975 218.074 86.1615 218.847C85.4623 219.583 84.6343 220.264 83.6775 220.89C82.7207 221.515 81.727 222.141 80.6966 222.766L90.688 234.579Z"/>
</mask>
<path d="M77.495 224.146L79.0263 222.86L78.0394 221.685L76.6492 222.334L77.495 224.146ZM74.4037 226.023L75.6139 227.616L75.6232 227.608L74.4037 226.023ZM71.9749 228.397L70.4068 227.155L70.3906 227.176L70.3749 227.197L71.9749 228.397ZM70.3741 231.267L72.2263 232.022L72.231 232.01L72.2356 231.999L70.3741 231.267ZM70.4293 237.947L68.5813 238.711L68.5974 238.75L68.6153 238.789L70.4293 237.947ZM72.3061 240.596L70.9268 242.044L70.9436 242.06L70.9608 242.076L72.3061 240.596ZM75.1214 242.307L74.412 244.177L74.4224 244.181L74.4328 244.185L75.1214 242.307ZM84.3399 241.479L85.3574 243.201L85.3689 243.194L84.3399 241.479ZM88.8111 237.615L90.3447 238.899L91.4214 237.613L90.3424 236.329L88.8111 237.615ZM84.6159 215.038L82.792 214.218L82.789 214.224L82.7861 214.231L84.6159 215.038ZM85.0023 212.72L83.0042 212.807L83.0062 212.854L83.0105 212.901L85.0023 212.72ZM84.2847 210.457L82.5538 211.459L82.5855 211.513L82.6206 211.566L84.2847 210.457ZM82.5735 208.745L83.6025 207.03L83.6024 207.03L82.5735 208.745ZM77.9366 208.414L77.271 206.528H77.271L77.9366 208.414ZM76.2254 209.353L74.9897 207.78L74.9612 207.802L74.9335 207.826L76.2254 209.353ZM75.0662 210.843L73.2773 209.949L73.2773 209.949L75.0662 210.843ZM76.115 216.805L74.4084 217.848L74.429 217.881L74.4509 217.914L76.115 216.805ZM77.495 218.737L75.9063 219.952L75.9242 219.975L75.9428 219.998L77.495 218.737ZM78.7646 220.282L77.2282 221.563L78.3248 222.879L79.7936 221.997L78.7646 220.282ZM82.0767 218.13L83.2236 219.768L83.2341 219.761L82.0767 218.13ZM90.688 234.579L89.1609 235.871L90.9742 238.015L92.4077 235.6L90.688 234.579ZM92.0128 230.881L90.04 230.552L90.0362 230.575L90.0329 230.598L92.0128 230.881ZM92.344 226.851V224.851H90.344V226.851H92.344ZM95.6008 226.851L97.5992 226.933L97.6841 224.851H95.6008V226.851ZM94.8832 232.261L92.9318 231.823L92.9284 231.838L92.9253 231.853L94.8832 232.261ZM92.8408 237.229L91.1584 236.147L90.3578 237.393L91.3153 238.522L92.8408 237.229ZM99.2993 244.847V246.847H103.617L100.825 243.553L99.2993 244.847ZM94.828 244.847L93.2842 246.118L93.8842 246.847H94.828V244.847ZM90.964 240.155L92.5078 238.883L90.9785 237.026L89.432 238.869L90.964 240.155ZM85.3887 244.571L84.5764 242.743L85.3887 244.571ZM73.5757 245.012L74.3028 243.149L74.2829 243.141L74.2629 243.134L73.5757 245.012ZM69.6013 242.639L68.2366 244.101L68.2486 244.112L68.2607 244.123L69.6013 242.639ZM66.9516 238.94L65.111 239.722L65.1229 239.751L65.1357 239.778L66.9516 238.94ZM66.786 229.998L64.9367 229.236H64.9367L66.786 229.998ZM68.8285 226.575L67.31 225.274L67.2963 225.29L67.283 225.306L68.8285 226.575ZM71.8645 223.87L72.9862 225.526L73.0042 225.514L73.022 225.501L71.8645 223.87ZM75.5078 221.773L76.3393 223.592L78.7485 222.49L77.0294 220.475L75.5078 221.773ZM72.5821 217.743L70.8671 218.772L70.8729 218.782L70.8788 218.791L72.5821 217.743ZM71.9749 209.573L73.7638 210.468L73.7704 210.454L73.7769 210.441L71.9749 209.573ZM73.9069 207.089L75.1734 208.637H75.1734L73.9069 207.089ZM76.7222 205.599L76.1475 203.683L76.1384 203.686L76.1294 203.689L76.7222 205.599ZM83.5671 205.709L84.2984 203.848L84.2984 203.848L83.5671 205.709ZM86.2167 207.365L84.8392 208.815L84.8392 208.815L86.2167 207.365ZM87.9279 209.849L86.086 210.629L86.0916 210.642L86.0973 210.655L87.9279 209.849ZM87.8727 216.253L86.0451 215.44L86.0378 215.457L86.0308 215.473L87.8727 216.253ZM86.1615 218.847L84.7132 217.468L84.7115 217.47L86.1615 218.847ZM83.6775 220.89L84.772 222.563L84.772 222.563L83.6775 220.89ZM80.6966 222.766L79.6587 221.057L77.6584 222.271L79.1696 224.058L80.6966 222.766ZM76.6492 222.334C75.414 222.91 74.2581 223.612 73.1843 224.438L75.6232 227.608C76.463 226.962 77.368 226.413 78.3408 225.959L76.6492 222.334ZM73.1936 224.431C72.1435 225.229 71.2128 226.137 70.4068 227.155L73.543 229.638C74.1354 228.89 74.824 228.216 75.6139 227.616L73.1936 224.431ZM70.3749 227.197C69.6044 228.224 68.9829 229.339 68.5126 230.536L72.2356 231.999C72.5749 231.135 73.0206 230.336 73.5749 229.597L70.3749 227.197ZM68.5219 230.513C68.02 231.745 67.7669 233.031 67.7669 234.359H71.7669C71.7669 233.551 71.9186 232.777 72.2263 232.022L68.5219 230.513ZM67.7669 234.359C67.7669 235.907 68.0257 237.369 68.5813 238.711L72.2773 237.182C71.9497 236.39 71.7669 235.459 71.7669 234.359H67.7669ZM68.6153 238.789C69.1924 240.032 69.9609 241.125 70.9268 242.044L73.6854 239.148C73.1057 238.596 72.623 237.922 72.2433 237.104L68.6153 238.789ZM70.9608 242.076C71.964 242.988 73.1205 243.688 74.412 244.177L75.8307 240.437C74.9878 240.118 74.2674 239.676 73.6515 239.116L70.9608 242.076ZM74.4328 244.185C75.7775 244.678 77.2089 244.915 78.7094 244.915V240.915C77.6339 240.915 76.6733 240.746 75.8099 240.43L74.4328 244.185ZM78.7094 244.915C81.1525 244.915 83.3902 244.364 85.3573 243.201L83.3224 239.758C82.0512 240.509 80.5351 240.915 78.7094 240.915V244.915ZM85.3689 243.194C87.2286 242.079 88.8867 240.641 90.3447 238.899L87.2776 236.332C86.086 237.755 84.7632 238.893 83.3109 239.764L85.3689 243.194ZM90.3424 236.329L79.0263 222.86L75.9637 225.433L87.2799 238.902L90.3424 236.329ZM86.4397 215.859C86.9133 214.807 87.0986 213.689 86.9941 212.539L83.0105 212.901C83.0532 213.37 82.9809 213.798 82.792 214.218L86.4397 215.859ZM87.0004 212.633C86.9488 211.446 86.6061 210.333 85.9488 209.347L82.6206 211.566C82.8464 211.905 82.9822 212.301 83.0042 212.807L87.0004 212.633ZM86.0155 209.455C85.4303 208.444 84.6103 207.635 83.6025 207.03L81.5445 210.46C82.0086 210.739 82.3294 211.071 82.5538 211.459L86.0155 209.455ZM83.6024 207.03C82.4985 206.368 81.2437 206.083 79.9238 206.083V210.083C80.6647 210.083 81.1764 210.24 81.5445 210.46L83.6024 207.03ZM79.9238 206.083C79.0102 206.083 78.1217 206.228 77.271 206.528L78.6022 210.3C79.0027 210.159 79.439 210.083 79.9238 210.083V206.083ZM77.271 206.528C76.4421 206.821 75.6787 207.239 74.9897 207.78L77.461 210.925C77.8024 210.657 78.1798 210.449 78.6022 210.3L77.271 206.528ZM74.9335 207.826C74.2379 208.414 73.6866 209.13 73.2773 209.949L76.855 211.737C77.0345 211.378 77.256 211.1 77.5173 210.879L74.9335 207.826ZM73.2773 209.949C72.8284 210.846 72.6245 211.821 72.6245 212.83H76.6245C76.6245 212.368 76.7151 212.017 76.855 211.737L73.2773 209.949ZM72.6245 212.83C72.6245 213.75 72.8536 214.661 73.2229 215.538L76.9094 213.986C76.6899 213.465 76.6245 213.088 76.6245 212.83H72.6245ZM73.2229 215.538C73.557 216.332 73.9526 217.102 74.4084 217.848L77.8215 215.762C77.4677 215.183 77.1641 214.591 76.9094 213.986L73.2229 215.538ZM74.4509 217.914C74.9162 218.612 75.4013 219.291 75.9063 219.952L79.0837 217.522C78.6318 216.931 78.197 216.322 77.7791 215.695L74.4509 217.914ZM75.9428 219.998C76.4249 220.591 76.8535 221.113 77.2282 221.563L80.3011 219.002C79.9397 218.568 79.5219 218.06 79.0472 217.476L75.9428 219.998ZM79.7936 221.997C80.9396 221.31 82.0829 220.566 83.2236 219.768L80.9297 216.491C79.8623 217.238 78.7976 217.93 77.7356 218.567L79.7936 221.997ZM83.2341 219.761C84.6622 218.747 85.7446 217.435 86.4457 215.846L82.7861 214.231C82.3832 215.144 81.7727 215.893 80.9192 216.498L83.2341 219.761ZM92.4077 235.6C93.2342 234.208 93.7695 232.726 93.9927 231.164L90.0329 230.598C89.8881 231.612 89.5402 232.595 88.9683 233.558L92.4077 235.6ZM93.9856 231.21C94.2247 229.775 94.344 228.321 94.344 226.851H90.344C90.344 228.104 90.2424 229.337 90.04 230.552L93.9856 231.21ZM92.344 228.851H95.6008V224.851H92.344V228.851ZM93.6025 226.77C93.5339 228.45 93.3109 230.134 92.9318 231.823L96.8347 232.699C97.2651 230.781 97.5206 228.859 97.5992 226.933L93.6025 226.77ZM92.9253 231.853C92.6081 233.375 92.0222 234.804 91.1584 236.147L94.5232 238.31C95.6466 236.563 96.4224 234.679 96.8412 232.669L92.9253 231.853ZM91.3153 238.522L97.7738 246.14L100.825 243.553L94.3663 235.936L91.3153 238.522ZM99.2993 242.847H94.828V246.847H99.2993V242.847ZM96.3719 243.575L92.5078 238.883L89.4201 241.426L93.2842 246.118L96.3719 243.575ZM89.432 238.869C87.8526 240.751 86.2276 242.009 84.5764 242.743L86.201 246.398C88.5242 245.366 90.6161 243.68 92.4959 241.44L89.432 238.869ZM84.5764 242.743C82.8944 243.491 80.8629 243.895 78.4334 243.895V247.895C81.3031 247.895 83.9086 247.417 86.201 246.398L84.5764 242.743ZM78.4334 243.895C76.9355 243.895 75.5645 243.642 74.3028 243.149L72.8486 246.875C74.6046 247.561 76.4721 247.895 78.4334 247.895V243.895ZM74.2629 243.134C72.9841 242.666 71.8836 242.005 70.9419 241.154L68.2607 244.123C69.6006 245.333 71.1497 246.254 72.8886 246.891L74.2629 243.134ZM70.9659 241.177C70.0601 240.331 69.3265 239.313 68.7676 238.102L65.1357 239.778C65.9016 241.438 66.9344 242.885 68.2366 244.101L70.9659 241.177ZM68.7923 238.158C68.2823 236.958 68.0132 235.608 68.0132 234.083H64.0132C64.0132 236.09 64.3697 237.978 65.111 239.722L68.7923 238.158ZM68.0132 234.083C68.0132 232.849 68.2281 231.748 68.6354 230.759L64.9367 229.236C64.3136 230.749 64.0132 232.372 64.0132 234.083H68.0132ZM68.6354 230.759C69.0762 229.689 69.6553 228.72 70.3739 227.845L67.283 225.306C66.3088 226.492 65.5263 227.804 64.9367 229.236L68.6354 230.759ZM70.347 227.877C71.1125 226.984 71.9906 226.201 72.9862 225.526L70.7428 222.215C69.4568 223.086 68.3109 224.106 67.31 225.274L70.347 227.877ZM73.022 225.501C74.059 224.765 75.1642 224.129 76.3393 223.592L74.6762 219.954C73.2753 220.594 71.9516 221.356 70.707 222.239L73.022 225.501ZM77.0294 220.475C76.0307 219.304 75.116 218.045 74.2854 216.695L70.8788 218.791C71.8147 220.312 72.8504 221.739 73.9861 223.071L77.0294 220.475ZM74.2971 216.714C73.606 215.562 73.2573 214.3 73.2573 212.885H69.2573C69.2573 215.003 69.7918 216.98 70.8671 218.772L74.2971 216.714ZM73.2573 212.885C73.2573 211.892 73.4459 211.103 73.7638 210.468L70.1861 208.679C69.5471 209.957 69.2573 211.376 69.2573 212.885H73.2573ZM73.7769 210.441C74.1356 209.696 74.602 209.105 75.1734 208.637L72.6405 205.541C71.5926 206.399 70.771 207.464 70.1729 208.706L73.7769 210.441ZM75.1734 208.637C75.7706 208.149 76.4766 207.769 77.315 207.509L76.1294 203.689C74.8333 204.091 73.6625 204.705 72.6405 205.541L75.1734 208.637ZM77.2969 207.515C78.2047 207.242 79.1696 207.102 80.1998 207.102V203.102C78.8012 203.102 77.4477 203.293 76.1475 203.683L77.2969 207.515ZM80.1998 207.102C81.1883 207.102 82.0599 207.266 82.8358 207.571L84.2984 203.848C83.0134 203.343 81.6402 203.102 80.1998 203.102V207.102ZM82.8358 207.571C83.6481 207.89 84.3064 208.309 84.8392 208.815L87.5942 205.915C86.655 205.023 85.5469 204.338 84.2984 203.848L82.8358 207.571ZM84.8392 208.815C85.3712 209.321 85.7857 209.919 86.086 210.629L89.7699 209.07C89.2605 207.866 88.5342 206.808 87.5942 205.915L84.8392 208.815ZM86.0973 210.655C86.3876 211.315 86.5351 212.015 86.5351 212.775H90.5351C90.5351 211.474 90.2779 210.224 89.7586 209.044L86.0973 210.655ZM86.5351 212.775C86.5351 213.88 86.3511 214.752 86.0451 215.44L89.7004 217.065C90.2776 215.766 90.5351 214.32 90.5351 212.775H86.5351ZM86.0308 215.473C85.7225 216.202 85.2875 216.865 84.7132 217.468L87.6098 220.226C88.5075 219.284 89.2133 218.217 89.7147 217.032L86.0308 215.473ZM84.7115 217.47C84.1313 218.08 83.4262 218.664 82.583 219.216L84.772 222.563C85.8424 221.864 86.7933 221.086 87.6115 220.225L84.7115 217.47ZM82.583 219.216C81.6458 219.828 80.6711 220.442 79.6587 221.057L81.7346 224.476C82.783 223.839 83.7955 223.202 84.772 222.563L82.583 219.216ZM79.1696 224.058L89.1609 235.871L92.215 233.288L82.2237 221.475L79.1696 224.058Z" fill="#FFFCF9" mask="url(#path-22-outside-1_378_759)"/>
<mask id="path-24-outside-2_378_759" maskUnits="userSpaceOnUse" x="6.21021" y="260.79" width="102" height="53" fill="black">
<rect fill="white" x="6.21021" y="260.79" width="102" height="53"/>
<path d="M38.8891 275.582C38.1162 272.196 36.681 269.786 34.5834 268.351C32.4858 266.915 29.7441 266.198 26.3585 266.198C23.9664 266.198 21.9056 266.676 20.176 267.633C18.4464 268.59 17.0112 269.878 15.8703 271.497C14.7663 273.116 13.9383 274.993 13.3863 277.128C12.8711 279.225 12.6135 281.452 12.6135 283.807C12.6135 286.015 12.8343 288.186 13.2759 290.321C13.7543 292.455 14.5271 294.369 15.5943 296.061C16.6615 297.717 18.0968 299.061 19.9 300.091C21.7032 301.122 23.9664 301.637 26.6897 301.637C28.3825 301.637 29.9281 301.361 31.3265 300.809C32.725 300.257 33.9394 299.502 34.9698 298.545C36.037 297.552 36.9202 296.393 37.6194 295.068C38.3554 293.743 38.9075 292.289 39.2755 290.707H43.1947C42.7531 292.621 42.1091 294.442 41.2627 296.172C40.4163 297.865 39.2939 299.355 37.8954 300.643C36.5338 301.931 34.8594 302.962 32.8722 303.734C30.9217 304.47 28.6217 304.838 25.9721 304.838C22.9176 304.838 20.3048 304.286 18.1336 303.182C15.9623 302.042 14.1775 300.514 12.7791 298.601C11.4175 296.687 10.4239 294.479 9.79825 291.977C9.17265 289.437 8.85984 286.751 8.85984 283.917C8.85984 280.127 9.31985 276.907 10.2399 274.257C11.1967 271.608 12.5031 269.455 14.1591 267.799C15.8151 266.106 17.7656 264.891 20.0104 264.155C22.2552 263.383 24.7025 262.996 27.3521 262.996C29.3761 262.996 31.2529 263.272 32.9826 263.824C34.749 264.339 36.2946 265.131 37.6194 266.198C38.9811 267.265 40.0851 268.59 40.9315 270.172C41.8147 271.718 42.4219 273.521 42.7531 275.582H38.8891ZM48.9731 283.972C48.9731 281.065 49.3595 278.342 50.1323 275.803C50.9419 273.264 52.1196 271.056 53.6652 269.179C55.2108 267.265 57.1244 265.756 59.4061 264.652C61.6877 263.548 64.3189 262.996 67.2998 262.996C70.391 262.996 73.0958 263.548 75.4143 264.652C77.7695 265.719 79.7199 267.21 81.2656 269.123C82.848 271 84.0256 273.227 84.7984 275.803C85.608 278.342 86.0128 281.065 86.0128 283.972C86.0128 286.843 85.608 289.548 84.7984 292.087C84.0256 294.589 82.8664 296.797 81.3208 298.711C79.7751 300.588 77.8431 302.078 75.5247 303.182C73.2062 304.286 70.5198 304.838 67.4654 304.838C64.4109 304.838 61.7245 304.286 59.4061 303.182C57.0876 302.078 55.1556 300.588 53.61 298.711C52.0644 296.797 50.9051 294.589 50.1323 292.087C49.3595 289.548 48.9731 286.843 48.9731 283.972ZM67.5206 301.637C70.0966 301.637 72.3046 301.158 74.1447 300.202C76.0215 299.208 77.5487 297.901 78.7263 296.282C79.9407 294.663 80.8239 292.786 81.376 290.652C81.9648 288.517 82.2592 286.291 82.2592 283.972C82.2592 281.212 81.9096 278.747 81.2104 276.576C80.5479 274.368 79.5727 272.491 78.2847 270.945C76.9967 269.399 75.4327 268.222 73.5926 267.412C71.7526 266.603 69.6918 266.198 67.4102 266.198C64.8709 266.198 62.6629 266.695 60.7861 267.688C58.946 268.682 57.4188 270.007 56.2044 271.663C55.0268 273.282 54.1436 275.159 53.5548 277.293C53.0028 279.428 52.7268 281.654 52.7268 283.972C52.7268 286.328 53.0028 288.573 53.5548 290.707C54.1436 292.841 55.0268 294.718 56.2044 296.337C57.4188 297.957 58.946 299.245 60.7861 300.202C62.6629 301.158 64.9077 301.637 67.5206 301.637ZM105.903 310.966H90.3362V307.985L96.6842 301.802C98.1931 300.367 99.3155 299.208 100.051 298.325C100.824 297.405 101.34 296.595 101.597 295.896C101.892 295.16 102.039 294.387 102.039 293.577C102.039 292.4 101.689 291.517 100.99 290.928C100.327 290.339 99.4443 290.045 98.3403 290.045C97.2363 290.045 96.2242 290.265 95.3042 290.707C94.421 291.112 93.501 291.682 92.5442 292.418L90.6122 289.879C91.6794 288.959 92.8386 288.223 94.0898 287.671C95.3778 287.119 96.813 286.843 98.3955 286.843C100.751 286.843 102.591 287.432 103.916 288.609C105.277 289.75 105.958 291.333 105.958 293.357C105.958 294.571 105.7 295.693 105.185 296.724C104.707 297.717 103.989 298.748 103.032 299.815C102.112 300.846 100.972 302.005 99.6099 303.293L95.1386 307.543H105.903V310.966Z"/>
</mask>
<path d="M38.8891 275.582L36.9392 276.027L37.2941 277.582H38.8891V275.582ZM34.5834 268.351L33.454 270.001L33.454 270.001L34.5834 268.351ZM20.176 267.633L21.1441 269.383L20.176 267.633ZM15.8703 271.497L14.2354 270.345L14.2265 270.358L14.2179 270.37L15.8703 271.497ZM13.3863 277.128L11.45 276.627L11.4469 276.639L11.444 276.651L13.3863 277.128ZM13.2759 290.321L11.3174 290.726L11.3207 290.742L11.3243 290.758L13.2759 290.321ZM15.5943 296.061L13.9025 297.128L13.9078 297.136L13.9132 297.145L15.5943 296.061ZM19.9 300.091L18.9077 301.828H18.9077L19.9 300.091ZM31.3265 300.809L30.5922 298.948L31.3265 300.809ZM34.9698 298.545L36.3307 300.011L36.3326 300.009L34.9698 298.545ZM37.6194 295.068L35.8711 294.097L35.8607 294.115L35.8507 294.134L37.6194 295.068ZM39.2755 290.707V288.707H37.6872L37.3274 290.254L39.2755 290.707ZM43.1947 290.707L45.1435 291.157L45.7088 288.707H43.1947V290.707ZM41.2627 296.172L43.0515 297.066L43.0554 297.059L43.0591 297.051L41.2627 296.172ZM37.8954 300.643L36.5405 299.172L36.5307 299.181L36.521 299.19L37.8954 300.643ZM32.8722 303.734L33.5783 305.606L33.5877 305.602L33.5971 305.598L32.8722 303.734ZM18.1336 303.182L17.2033 304.953L17.2152 304.959L17.2271 304.965L18.1336 303.182ZM12.7791 298.601L11.1495 299.76L11.1568 299.77L11.1643 299.781L12.7791 298.601ZM9.79825 291.977L7.85631 292.455L7.85797 292.462L9.79825 291.977ZM10.2399 274.257L8.35875 273.578L8.35456 273.589L8.35051 273.601L10.2399 274.257ZM14.1591 267.799L15.5733 269.213L15.5811 269.205L15.5888 269.197L14.1591 267.799ZM20.0104 264.155L20.6335 266.056L20.6475 266.051L20.6614 266.046L20.0104 264.155ZM32.9826 263.824L32.3745 265.73L32.3984 265.737L32.4226 265.744L32.9826 263.824ZM37.6194 266.198L36.3648 267.755L36.3752 267.764L36.3857 267.772L37.6194 266.198ZM40.9315 270.172L39.1679 271.116L39.1811 271.14L39.195 271.165L40.9315 270.172ZM42.7531 275.582V277.582H45.1002L44.7278 275.265L42.7531 275.582ZM40.8389 275.137C39.9956 271.442 38.3578 268.51 35.7128 266.7L33.454 270.001C35.0043 271.062 36.2369 272.95 36.9392 276.027L40.8389 275.137ZM35.7128 266.7C33.1883 264.973 30.0156 264.198 26.3585 264.198V268.198C29.4727 268.198 31.7832 268.858 33.454 270.001L35.7128 266.7ZM26.3585 264.198C23.6986 264.198 21.2902 264.731 19.2079 265.883L21.1441 269.383C22.5211 268.621 24.2343 268.198 26.3585 268.198V264.198ZM19.2079 265.883C17.213 266.987 15.55 268.479 14.2354 270.345L17.5053 272.649C18.4723 271.277 19.6797 270.193 21.1441 269.383L19.2079 265.883ZM14.2179 270.37C12.9687 272.203 12.0527 274.297 11.45 276.627L15.3226 277.628C15.824 275.69 16.564 274.03 17.5228 272.624L14.2179 270.37ZM11.444 276.651C10.8872 278.918 10.6135 281.305 10.6135 283.807H14.6135C14.6135 281.598 14.855 279.533 15.3286 277.605L11.444 276.651ZM10.6135 283.807C10.6135 286.149 10.8478 288.456 11.3174 290.726L15.2344 289.915C14.8208 287.916 14.6135 285.881 14.6135 283.807H10.6135ZM11.3243 290.758C11.8481 293.095 12.7025 295.225 13.9025 297.128L17.2862 294.995C16.3517 293.513 15.6605 291.815 15.2275 289.883L11.3243 290.758ZM13.9132 297.145C15.1637 299.085 16.8413 300.647 18.9077 301.828L20.8923 298.355C19.3522 297.475 18.1594 296.35 17.2755 294.978L13.9132 297.145ZM18.9077 301.828C21.093 303.076 23.7236 303.637 26.6897 303.637V299.637C24.2093 299.637 22.3135 299.167 20.8923 298.355L18.9077 301.828ZM26.6897 303.637C28.6024 303.637 30.401 303.324 32.0609 302.669L30.5922 298.948C29.4552 299.397 28.1626 299.637 26.6897 299.637V303.637ZM32.0609 302.669C33.6747 302.032 35.1055 301.149 36.3307 300.011L33.6089 297.08C32.7733 297.856 31.7752 298.481 30.5922 298.948L32.0609 302.669ZM36.3326 300.009C37.5684 298.859 38.5873 297.519 39.3882 296.001L35.8507 294.134C35.2532 295.266 34.5056 296.245 33.607 297.082L36.3326 300.009ZM39.3677 296.039C40.2004 294.54 40.8164 292.911 41.2235 291.16L37.3274 290.254C36.9986 291.668 36.5105 292.946 35.8711 294.097L39.3677 296.039ZM39.2755 292.707H43.1947V288.707H39.2755V292.707ZM41.2459 290.257C40.8379 292.025 40.2444 293.703 39.4663 295.293L43.0591 297.051C43.9738 295.182 44.6683 293.216 45.1435 291.157L41.2459 290.257ZM39.4738 295.277C38.7364 296.752 37.7613 298.048 36.5405 299.172L39.2504 302.114C40.8264 300.663 42.0962 298.977 43.0515 297.066L39.4738 295.277ZM36.521 299.19C35.3714 300.278 33.9264 301.178 32.1473 301.87L33.5971 305.598C35.7924 304.745 37.6963 303.585 39.2698 302.096L36.521 299.19ZM32.1661 301.863C30.4932 302.494 28.443 302.838 25.9721 302.838V306.838C28.8004 306.838 31.3503 306.446 33.5783 305.606L32.1661 301.863ZM25.9721 302.838C23.1545 302.838 20.8682 302.329 19.0401 301.4L17.2271 304.965C19.7414 306.244 22.6808 306.838 25.9721 306.838V302.838ZM19.0638 301.412C17.1531 300.408 15.6058 299.079 14.3939 297.421L11.1643 299.781C12.7492 301.95 14.7715 303.675 17.2033 304.953L19.0638 301.412ZM14.4087 297.441C13.2054 295.75 12.3095 293.776 11.7385 291.492L7.85797 292.462C8.53818 295.182 9.62954 297.624 11.1495 299.76L14.4087 297.441ZM11.7402 291.498C11.1562 289.128 10.8598 286.603 10.8598 283.917H6.85984C6.85984 286.899 7.18908 289.747 7.85633 292.455L11.7402 291.498ZM10.8598 283.917C10.8598 280.277 11.3031 277.292 12.1292 274.913L8.35051 273.601C7.33657 276.521 6.85984 279.977 6.85984 283.917H10.8598ZM12.121 274.936C12.9979 272.508 14.1629 270.623 15.5733 269.213L12.7449 266.384C10.8433 268.286 9.3954 270.707 8.35875 273.578L12.121 274.936ZM15.5888 269.197C17.0207 267.733 18.6947 266.692 20.6335 266.056L19.3873 262.255C16.8364 263.091 14.6095 264.478 12.7294 266.4L15.5888 269.197ZM20.6614 266.046C22.674 265.354 24.8985 264.996 27.3521 264.996V260.996C24.5064 260.996 21.8365 261.412 19.3594 262.264L20.6614 266.046ZM27.3521 264.996C29.1932 264.996 30.8626 265.247 32.3745 265.73L33.5907 261.919C31.6433 261.297 29.5591 260.996 27.3521 260.996V264.996ZM32.4226 265.744C33.9567 266.192 35.2616 266.867 36.3648 267.755L38.8741 264.64C37.3276 263.395 35.5413 262.487 33.5426 261.904L32.4226 265.744ZM36.3857 267.772C37.5206 268.662 38.4474 269.769 39.1679 271.116L42.695 269.229C41.7227 267.411 40.4415 265.869 38.8532 264.624L36.3857 267.772ZM39.195 271.165C39.9402 272.469 40.479 274.036 40.7785 275.899L44.7278 275.265C44.3649 273.006 43.6892 270.967 42.668 269.18L39.195 271.165ZM42.7531 273.582H38.8891V277.582H42.7531V273.582ZM50.1323 275.803L48.2268 275.195L48.2228 275.208L48.219 275.22L50.1323 275.803ZM53.6652 269.179L55.209 270.45L55.2151 270.443L55.2211 270.435L53.6652 269.179ZM59.4061 264.652L58.5349 262.852V262.852L59.4061 264.652ZM75.4143 264.652L74.5544 266.458L74.5715 266.466L74.5888 266.474L75.4143 264.652ZM81.2656 269.123L79.7097 270.38L79.7229 270.397L79.7365 270.413L81.2656 269.123ZM84.7984 275.803L82.8828 276.377L82.8877 276.394L82.8929 276.41L84.7984 275.803ZM84.7984 292.087L82.8929 291.479L82.8901 291.488L82.8875 291.497L84.7984 292.087ZM81.3208 298.711L82.8646 299.982L82.8707 299.975L82.8766 299.968L81.3208 298.711ZM75.5247 303.182L76.3845 304.988L75.5247 303.182ZM59.4061 303.182L60.2659 301.377L59.4061 303.182ZM53.61 298.711L52.0541 299.968L52.0601 299.975L52.0661 299.982L53.61 298.711ZM50.1323 292.087L48.219 292.669L48.2214 292.677L50.1323 292.087ZM74.1447 300.201L75.0674 301.976L75.0739 301.973L75.0804 301.969L74.1447 300.201ZM78.7263 296.282L77.1263 295.082L77.1175 295.094L77.1088 295.106L78.7263 296.282ZM81.376 290.652L79.448 290.12L79.4437 290.135L79.4397 290.151L81.376 290.652ZM81.2104 276.576L79.2947 277.15L79.3005 277.17L79.3066 277.189L81.2104 276.576ZM78.2847 270.945L79.8212 269.665V269.665L78.2847 270.945ZM73.5927 267.412L72.7872 269.243L73.5927 267.412ZM60.7861 267.688L59.8503 265.921L59.843 265.925L59.8358 265.928L60.7861 267.688ZM56.2044 271.663L54.5916 270.48L54.5869 270.486L56.2044 271.663ZM53.5548 277.293L51.6268 276.761L51.6225 276.777L51.6185 276.792L53.5548 277.293ZM53.5548 290.707L51.6185 291.208L51.6225 291.223L51.6268 291.239L53.5548 290.707ZM56.2044 296.337L54.5869 297.514L54.5956 297.526L54.6044 297.537L56.2044 296.337ZM60.7861 300.201L59.8634 301.976L59.8705 301.98L59.8777 301.983L60.7861 300.201ZM50.9731 283.972C50.9731 281.244 51.3355 278.718 52.0457 276.385L48.219 275.22C47.3835 277.966 46.9731 280.887 46.9731 283.972H50.9731ZM52.0378 276.41C52.7776 274.09 53.84 272.113 55.209 270.45L52.1213 267.907C50.3992 269.998 49.1062 272.437 48.2268 275.195L52.0378 276.41ZM55.2211 270.435C56.5756 268.758 58.2528 267.432 60.2772 266.453L58.5349 262.852C55.9961 264.08 53.846 265.772 52.1093 267.922L55.2211 270.435ZM60.2772 266.453C62.2434 265.501 64.5679 264.996 67.2998 264.996V260.996C64.07 260.996 61.132 261.595 58.5349 262.852L60.2772 266.453ZM67.2998 264.996C70.1533 264.996 72.5538 265.505 74.5544 266.458L76.2741 262.846C73.6379 261.591 70.6288 260.996 67.2998 260.996V264.996ZM74.5888 266.474C76.6748 267.419 78.3702 268.722 79.7097 270.38L82.8214 267.867C81.0697 265.698 78.8642 264.02 76.2397 262.831L74.5888 266.474ZM79.7365 270.413C81.1263 272.061 82.181 274.038 82.8828 276.377L86.7141 275.228C85.8702 272.415 84.5696 269.94 82.7946 267.834L79.7365 270.413ZM82.8929 276.41C83.6345 278.736 84.0128 281.253 84.0128 283.972H88.0128C88.0128 280.878 87.5816 277.948 86.7039 275.195L82.8929 276.41ZM84.0128 283.972C84.0128 286.653 83.6353 289.151 82.8929 291.479L86.7039 292.695C87.5808 289.944 88.0128 287.033 88.0128 283.972H84.0128ZM82.8875 291.497C82.1847 293.772 81.1408 295.751 79.7649 297.454L82.8766 299.968C84.592 297.844 85.8665 295.406 86.7094 292.677L82.8875 291.497ZM79.7769 297.44C78.4278 299.078 76.7341 300.391 74.6648 301.377L76.3845 304.988C78.9522 303.765 81.1225 302.098 82.8646 299.982L79.7769 297.44ZM74.6648 301.377C72.6611 302.331 70.2781 302.838 67.4654 302.838V306.838C70.7616 306.838 73.7513 306.242 76.3845 304.988L74.6648 301.377ZM67.4654 302.838C64.6527 302.838 62.2696 302.331 60.2659 301.377L58.5462 304.988C61.1794 306.242 64.1692 306.838 67.4654 306.838V302.838ZM60.2659 301.377C58.1967 300.391 56.5029 299.078 55.1538 297.44L52.0661 299.982C53.8083 302.098 55.9786 303.765 58.5462 304.988L60.2659 301.377ZM55.1659 297.454C53.79 295.751 52.746 293.772 52.0433 291.497L48.2214 292.677C49.0642 295.406 50.3387 297.844 52.0541 299.968L55.1659 297.454ZM52.0457 291.505C51.3348 289.169 50.9731 286.662 50.9731 283.972H46.9731C46.9731 287.024 47.3842 289.927 48.219 292.669L52.0457 291.505ZM67.5206 303.637C70.3415 303.637 72.8815 303.113 75.0674 301.976L73.2219 298.427C71.7277 299.204 69.8517 299.637 67.5206 299.637V303.637ZM75.0804 301.969C77.2098 300.842 78.9761 299.339 80.3438 297.459L77.1088 295.106C76.1213 296.464 74.8331 297.574 73.2089 298.434L75.0804 301.969ZM80.3263 297.482C81.7109 295.636 82.7007 293.517 83.3122 291.153L79.4397 290.151C78.9472 292.055 78.1706 293.69 77.1263 295.082L80.3263 297.482ZM83.3039 291.184C83.9427 288.868 84.2592 286.462 84.2592 283.972H80.2592C80.2592 286.12 79.9868 288.167 79.448 290.12L83.3039 291.184ZM84.2592 283.972C84.2592 281.047 83.8888 278.368 83.1141 275.963L79.3066 277.189C79.9303 279.125 80.2592 281.378 80.2592 283.972H84.2592ZM83.126 276.001C82.3973 273.572 81.3053 271.446 79.8212 269.665L76.7483 272.225C77.8402 273.536 78.6986 275.163 79.2947 277.15L83.126 276.001ZM79.8212 269.665C78.3354 267.882 76.5213 266.516 74.3981 265.582L72.7872 269.243C74.344 269.928 75.6579 270.917 76.7483 272.225L79.8212 269.665ZM74.3981 265.582C72.2721 264.646 69.9318 264.198 67.4102 264.198V268.198C69.4518 268.198 71.2331 268.559 72.7872 269.243L74.3981 265.582ZM67.4102 264.198C64.6082 264.198 62.0668 264.747 59.8503 265.921L61.7218 269.456C63.259 268.642 65.1336 268.198 67.4102 268.198V264.198ZM59.8358 265.928C57.7398 267.06 55.9846 268.58 54.5916 270.48L57.8172 272.845C58.853 271.433 60.1523 270.303 61.7364 269.448L59.8358 265.928ZM54.5869 270.486C53.2537 272.32 52.2728 274.42 51.6268 276.761L55.4828 277.825C56.0144 275.898 56.7999 274.244 57.8219 272.839L54.5869 270.486ZM51.6185 276.792C51.022 279.099 50.7268 281.494 50.7268 283.972H54.7268C54.7268 281.814 54.9835 279.757 55.4911 277.794L51.6185 276.792ZM50.7268 283.972C50.7268 286.485 51.0214 288.899 51.6185 291.208L55.4911 290.206C54.9841 288.246 54.7268 286.17 54.7268 283.972H50.7268ZM51.6268 291.239C52.2728 293.581 53.2537 295.681 54.5869 297.514L57.8219 295.161C56.7999 293.756 56.0144 292.102 55.4828 290.175L51.6268 291.239ZM54.6044 297.537C56.0032 299.403 57.7641 300.884 59.8634 301.976L61.7088 298.427C60.1279 297.605 58.8344 296.511 57.8044 295.137L54.6044 297.537ZM59.8777 301.983C62.0954 303.114 64.6664 303.637 67.5206 303.637V299.637C65.1491 299.637 63.2304 299.203 61.6944 298.42L59.8777 301.983ZM105.903 310.966V312.966H107.903V310.966H105.903ZM90.3362 310.966H88.3362V312.966H90.3362V310.966ZM90.3362 307.985L88.9408 306.552L88.3362 307.141V307.985H90.3362ZM96.6842 301.802L95.3058 300.353L95.2973 300.361L95.2888 300.37L96.6842 301.802ZM100.051 298.325L98.5201 297.038L98.515 297.044L100.051 298.325ZM101.597 295.896L99.7402 295.153L99.7299 295.179L99.7204 295.204L101.597 295.896ZM100.99 290.928L99.6612 292.423L99.6812 292.44L99.7016 292.458L100.99 290.928ZM95.3042 290.707L96.1375 292.525L96.1537 292.518L96.1697 292.51L95.3042 290.707ZM92.5442 292.418L90.9525 293.629L92.17 295.229L93.7636 294.003L92.5442 292.418ZM90.6122 289.879L89.3063 288.364L87.8812 289.593L89.0205 291.09L90.6122 289.879ZM94.0898 287.671L93.302 285.833L93.2922 285.837L93.2825 285.841L94.0898 287.671ZM103.916 288.609L102.587 290.104L102.609 290.124L102.631 290.142L103.916 288.609ZM105.185 296.724L103.396 295.829L103.39 295.843L103.383 295.856L105.185 296.724ZM103.032 299.815L101.543 298.48L101.54 298.483L103.032 299.815ZM99.6099 303.293L98.2355 301.84L98.2319 301.843L99.6099 303.293ZM95.1386 307.543L93.7607 306.094L90.1319 309.543H95.1386V307.543ZM105.903 307.543H107.903V305.543H105.903V307.543ZM105.903 308.966H90.3362V312.966H105.903V308.966ZM92.3362 310.966V307.985H88.3362V310.966H92.3362ZM91.7316 309.418L98.0796 303.235L95.2888 300.37L88.9408 306.552L91.7316 309.418ZM98.0627 303.251C99.5904 301.798 100.778 300.577 101.588 299.605L98.515 297.044C97.8529 297.839 96.7957 298.936 95.3058 300.353L98.0627 303.251ZM101.583 299.611C102.425 298.609 103.103 297.595 103.474 296.587L99.7204 295.204C99.5765 295.595 99.2238 296.2 98.5201 297.038L101.583 299.611ZM103.454 296.639C103.845 295.661 104.039 294.636 104.039 293.577H100.039C100.039 294.138 99.938 294.658 99.7402 295.153L103.454 296.639ZM104.039 293.577C104.039 291.993 103.552 290.471 102.278 289.398L99.7016 292.458C99.8262 292.563 100.039 292.807 100.039 293.577H104.039ZM102.319 289.433C101.206 288.444 99.8091 288.045 98.3403 288.045V292.045C99.0795 292.045 99.4486 292.234 99.6612 292.423L102.319 289.433ZM98.3403 288.045C96.9616 288.045 95.6505 288.322 94.4388 288.904L96.1697 292.51C96.798 292.208 97.5109 292.045 98.3403 292.045V288.045ZM94.4709 288.889C93.4223 289.369 92.3736 290.026 91.3248 290.833L93.7636 294.003C94.6284 293.338 95.4197 292.854 96.1375 292.525L94.4709 288.889ZM94.1358 291.207L92.2038 288.668L89.0205 291.09L90.9525 293.629L94.1358 291.207ZM91.918 291.394C92.8401 290.599 93.8322 289.971 94.8971 289.501L93.2825 285.841C91.845 286.475 90.5186 287.319 89.3063 288.364L91.918 291.394ZM94.8776 289.509C95.8865 289.077 97.049 288.843 98.3955 288.843V284.843C96.5771 284.843 94.8692 285.161 93.302 285.833L94.8776 289.509ZM98.3955 288.843C100.425 288.843 101.734 289.346 102.587 290.104L105.244 287.115C103.447 285.517 101.077 284.843 98.3955 284.843V288.843ZM102.631 290.142C103.473 290.848 103.958 291.832 103.958 293.357H107.958C107.958 290.833 107.082 288.653 105.2 287.076L102.631 290.142ZM103.958 293.357C103.958 294.278 103.765 295.092 103.396 295.829L106.974 297.618C107.636 296.295 107.958 294.864 107.958 293.357H103.958ZM103.383 295.856C103.007 296.638 102.41 297.514 101.543 298.48L104.521 301.15C105.569 299.982 106.407 298.797 106.987 297.591L103.383 295.856ZM101.54 298.483C100.668 299.46 99.5696 300.578 98.2355 301.84L100.984 304.746C102.373 303.432 103.556 302.231 104.524 301.147L101.54 298.483ZM98.2319 301.843L93.7607 306.094L96.5166 308.993L100.988 304.742L98.2319 301.843ZM95.1386 309.543H105.903V305.543H95.1386V309.543ZM103.903 307.543V310.966H107.903V307.543H103.903Z" fill="#FFFCF9" mask="url(#path-24-outside-2_378_759)"/>
<path d="M176.725 106.659V147.358H77.7842V187.355" stroke="#FFFCF9" stroke-width="2"/>
<path d="M77.7841 190.863L86.2918 175.075H69.2764L77.7841 190.863Z" fill="#FFFCF9"/>
</svg>
